<svg width="14" height="14" viewBox="0 0 14 14" fill="none" xmlns="http://www.w3.org/2000/svg">
<mask id="mask0_148_7081" style="mask-type:luminance" maskUnits="userSpaceOnUse" x="0" y="0" width="14" height="14">
<path d="M14 0H0V14H14V0Z" fill="white"/>
</mask>
<g mask="url(#mask0_148_7081)">
<path d="M10.5 0.5H3.5C1.843 0.5 0.5 1.843 0.5 3.5V10.5C0.5 12.156 1.843 13.5 3.5 13.5H10.5C12.157 13.5 13.5 12.156 13.5 10.5V3.5C13.5 1.843 12.157 0.5 10.5 0.5Z" stroke="#000001" stroke-linecap="round" stroke-linejoin="round"/>
<path d="M5.5 3.5V10.5" stroke="#000001" stroke-linecap="round" stroke-linejoin="round"/>
<path d="M5.5 7.5H7.5C8.031 7.5 8.53904 7.289 8.91504 6.914C9.29004 6.539 9.5 6.03 9.5 5.5C9.5 4.969 9.29004 4.46002 8.91504 4.08502C8.53904 3.71002 8.031 3.5 7.5 3.5H5.5" stroke="#000001" stroke-linecap="round" stroke-linejoin="round"/>
</g>
</svg>
