<svg width="14" height="14" viewBox="0 0 14 14" fill="none" xmlns="http://www.w3.org/2000/svg">
<mask id="mask0_148_4376" style="mask-type:luminance" maskUnits="userSpaceOnUse" x="0" y="0" width="14" height="14">
<path d="M14 0H0V14H14V0Z" fill="white"/>
</mask>
<g mask="url(#mask0_148_4376)">
<path d="M9 7.5C11.485 7.5 13.5 6.604 13.5 5.5C13.5 4.395 11.485 3.5 9 3.5C6.515 3.5 4.5 4.395 4.5 5.5C4.5 6.604 6.515 7.5 9 7.5Z" stroke="#000001" stroke-linecap="round" stroke-linejoin="round"/>
<path d="M4.5 5.5V11.5C4.5 12.6 6.5 13.5 9 13.5C11.5 13.5 13.5 12.6 13.5 11.5V5.5" stroke="#000001" stroke-linecap="round" stroke-linejoin="round"/>
<path d="M13.5 8.5C13.5 9.6 11.5 10.5 9 10.5C6.5 10.5 4.5 9.6 4.5 8.5" stroke="#000001" stroke-linecap="round" stroke-linejoin="round"/>
<path d="M8.89999 1.50003C7.73099 0.778029 6.371 0.430029 5 0.500029C2.51 0.500029 0.5 1.40003 0.5 2.50003C0.5 3.09003 1.08 3.62003 2 4.00003" stroke="#000001" stroke-linecap="round" stroke-linejoin="round"/>
<path d="M2 10C1.08 9.62 0.5 9.09 0.5 8.5V2.5" stroke="#000001" stroke-linecap="round" stroke-linejoin="round"/>
<path d="M2 7C1.08 6.62 0.5 6.09 0.5 5.5" stroke="#000001" stroke-linecap="round" stroke-linejoin="round"/>
</g>
</svg>
