<svg width="30" height="30" viewBox="0 0 30 30" fill="none" xmlns="http://www.w3.org/2000/svg">
<g clip-path="url(#clip0_6_60)">
<path fill-rule="evenodd" clip-rule="evenodd" d="M15 0C6.71 0 0 6.72 0 15C0 18.44 1.16 21.61 3.11 24.14C3.29 24.38 3.48 24.61 3.68 24.84C3.82 24.59 4.03 24.37 4.29 24.23C4.09 24.01 3.91 23.79 3.74 23.56C2.5 21.94 1.61 20.05 1.17 17.99C0.99 17.16 0.88 16.3 0.86 15.43C0.85 15.29 0.85 15.14 0.85 15C0.85 14.93 0.85 14.86 0.86 14.79C0.85 14.72 0.85 14.64 0.86 14.57C0.88 13.7 0.99 12.84 1.17 12.01C2.33 6.6 6.59 2.35 12 1.18C12.83 1 13.69 0.89 14.57 0.87C14.64 0.86 14.72 0.86 14.79 0.87C14.86 0.86 14.93 0.86 15 0.86C15.07 0.86 15.14 0.86 15.21 0.87C15.28 0.86 15.36 0.86 15.43 0.87C16.31 0.89 17.17 1 18 1.18C23.4 2.35 27.65 6.6 28.82 12C29 12.83 29.11 13.69 29.13 14.57C29.14 14.64 29.14 14.72 29.13 14.79C29.14 14.86 29.14 14.93 29.14 15C29.14 15.14 29.14 15.29 29.13 15.43C29.11 16.31 29 17.17 28.82 18C27.65 23.4 23.4 27.65 18 28.82C17.17 29 16.31 29.11 15.43 29.13C15.29 29.14 15.14 29.14 15 29.14C14.86 29.14 14.71 29.14 14.57 29.13C13.69 29.11 12.83 29 12 28.82C10.34 28.46 8.78 27.81 7.4 26.93C7.16 26.77 6.92 26.61 6.69 26.44C6.56 26.71 6.38 26.94 6.14 27.11C6.38 27.28 6.63 27.45 6.88 27.61C9.22 29.12 12 30 15 30C23.28 30 30 23.28 30 15C30 6.72 23.28 0 15 0Z" fill="#394508"/>
<path fill-rule="evenodd" clip-rule="evenodd" d="M21.17 6.01C20.36 3.9 19.27 2.22 18 1.18C17.08 0.42 16.07 0 15 0C13.93 0 12.92 0.42 12 1.18C10.33 2.55 8.96 5.03 8.13 8.14C8.05 8.45 7.98 8.77 7.91 9.09C7.67 10.15 7.5 11.28 7.4 12.45C7.37 12.74 7.34 13.03 7.33 13.33C7.45 13.31 7.58 13.29 7.71 13.29C7.88 13.29 8.04 13.31 8.19 13.36C8.2 13.06 8.23 12.78 8.26 12.49C8.37 11.21 8.57 9.98 8.85 8.85C8.92 8.53 9 8.22 9.09 7.92C9.42 6.76 9.84 5.71 10.31 4.79C11.53 2.4 13.06 1.1 14.57 0.9C14.64 0.88 14.71 0.88 14.79 0.87C14.86 0.86 14.93 0.86 15 0.86C15.07 0.86 15.14 0.86 15.21 0.87C15.28 0.88 15.35 0.88 15.43 0.9C16.93 1.1 18.47 2.4 19.69 4.79C19.92 5.24 20.14 5.73 20.34 6.24C20.44 6.51 20.54 6.78 20.64 7.06C20.87 6.93 21.14 6.86 21.43 6.86H21.47C21.38 6.57 21.28 6.29 21.17 6.01ZM22.7 14.57C22.69 13.31 22.59 12.1 22.42 10.94C22.38 10.64 22.33 10.34 22.28 10.05C22.03 10.2 21.75 10.29 21.45 10.29C21.5 10.57 21.54 10.85 21.58 11.13C21.74 12.23 21.83 13.38 21.84 14.57C21.84 14.71 21.84 14.86 21.84 15C21.84 15.14 21.84 15.29 21.84 15.43C21.82 17.48 21.57 19.42 21.15 21.15C21.08 21.47 20.99 21.78 20.91 22.08C20.57 23.24 20.16 24.29 19.69 25.21C18.47 27.6 16.93 28.9 15.43 29.1C15.28 29.13 15.14 29.14 15 29.14C14.86 29.14 14.71 29.13 14.57 29.1C13.06 28.9 11.53 27.6 10.31 25.21C9.84 24.29 9.42 23.24 9.09 22.08C9 21.78 8.92 21.47 8.85 21.15C8.57 20.02 8.37 18.79 8.26 17.51C8.23 17.22 8.2 16.94 8.19 16.64C8.04 16.69 7.88 16.71 7.71 16.71C7.58 16.71 7.45 16.69 7.33 16.67C7.34 16.97 7.37 17.26 7.4 17.55C7.5 18.72 7.67 19.85 7.91 20.91C7.98 21.23 8.05 21.55 8.13 21.86C8.96 24.97 10.33 27.45 12 28.82C12.92 29.58 13.93 30 15 30C16.07 30 17.08 29.58 18 28.82C19.67 27.45 21.03 24.97 21.86 21.86C21.94 21.55 22.02 21.23 22.09 20.91C22.46 19.22 22.68 17.37 22.7 15.43C22.71 15.29 22.71 15.14 22.71 15C22.71 14.86 22.71 14.71 22.7 14.57Z" fill="#394508"/>
<path fill-rule="evenodd" clip-rule="evenodd" d="M28.82 12C27.78 10.73 26.1 9.64001 23.99 8.83001C23.71 8.72001 23.43 8.62001 23.14 8.53001V8.57001C23.14 8.86001 23.07 9.13001 22.94 9.37001C23.22 9.46001 23.5 9.56001 23.76 9.66001C24.28 9.86001 24.76 10.08 25.21 10.31C27.6 11.53 28.9 13.07 29.1 14.57C29.11 14.64 29.13 14.72 29.13 14.79C29.14 14.86 29.14 14.93 29.14 15C29.14 15.14 29.13 15.28 29.1 15.43C28.9 16.93 27.6 18.47 25.21 19.69C24.3 20.16 23.25 20.57 22.09 20.91C21.79 20.99 21.47 21.08 21.15 21.15C19.42 21.57 17.48 21.83 15.43 21.85C15.29 21.86 15.15 21.86 15 21.86C14.86 21.86 14.71 21.86 14.57 21.85C12.52 21.83 10.58 21.58 8.85 21.15C8.53 21.08 8.21 21 7.91 20.91C6.75 20.57 5.7 20.16 4.78 19.69C2.4 18.47 1.09 16.93 0.89 15.43C0.86 15.28 0.85 15.14 0.85 15C0.85 14.93 0.85 14.86 0.86 14.79C0.87 14.72 0.87 14.64 0.89 14.57C1.09 13.07 2.4 11.53 4.78 10.31C5.7 9.84001 6.75 9.43001 7.91 9.09001C8.21 9.00001 8.53 8.92001 8.85 8.85001C10.58 8.42001 12.52 8.17001 14.57 8.15001C14.71 8.14001 14.86 8.14001 15 8.14001C15.15 8.14001 15.29 8.14001 15.43 8.15001C16.62 8.15001 17.77 8.25001 18.86 8.42001C19.15 8.45001 19.43 8.49001 19.71 8.55001C19.71 8.25001 19.8 7.96001 19.94 7.72001C19.65 7.66001 19.35 7.62001 19.05 7.58001C17.89 7.41001 16.68 7.31001 15.43 7.30001C15.29 7.29001 15.14 7.29001 15 7.29001C14.86 7.29001 14.71 7.29001 14.57 7.30001C12.62 7.32001 10.78 7.54001 9.09 7.92001C8.76 7.98001 8.44 8.06001 8.13 8.14001C5.01 8.97001 2.54 10.34 1.17 12.01C0.42 12.93 0 13.94 0 15C0 16.06 0.42 17.07 1.17 17.99C2.54 19.66 5.01 21.03 8.13 21.86C8.44 21.94 8.76 22.02 9.09 22.08C10.78 22.46 12.62 22.68 14.57 22.7C14.71 22.71 14.86 22.71 15 22.71C15.14 22.71 15.29 22.71 15.43 22.7C17.37 22.68 19.22 22.46 20.91 22.08C21.23 22.02 21.55 21.94 21.86 21.86C24.97 21.03 27.45 19.67 28.82 18C29.58 17.08 30 16.06 30 15C30 13.94 29.58 12.92 28.82 12Z" fill="#394508"/>
<path fill-rule="evenodd" clip-rule="evenodd" d="M21.43 6C21.34 6 21.25 6 21.17 6.01C20.87 6.04 20.59 6.12 20.34 6.24C19.76 6.51 19.3 6.99 19.05 7.58C18.94 7.84 18.87 8.12 18.86 8.42C18.85 8.47 18.85 8.52 18.85 8.57C18.85 9.99 20.01 11.14 21.43 11.14C21.48 11.14 21.53 11.14 21.58 11.13C21.88 11.12 22.16 11.05 22.42 10.94C23.01 10.7 23.49 10.24 23.76 9.66C23.88 9.41 23.96 9.13 23.99 8.83C24 8.74 24 8.66 24 8.57C24 7.15 22.85 6 21.43 6ZM23.14 8.57C23.14 8.86 23.07 9.13 22.94 9.37C22.79 9.66 22.56 9.9 22.28 10.05C22.03 10.2 21.75 10.29 21.45 10.29H21.43C20.48 10.29 19.71 9.52 19.71 8.57V8.55C19.71 8.25 19.8 7.96 19.94 7.72C20.1 7.43 20.34 7.2 20.64 7.06C20.87 6.93 21.14 6.86 21.43 6.86H21.47C22.38 6.88 23.12 7.61 23.14 8.53V8.57Z" fill="#394508"/>
<path fill-rule="evenodd" clip-rule="evenodd" d="M5.14001 23.14C4.62001 23.14 4.14001 23.29 3.74001 23.56C3.50001 23.71 3.28001 23.91 3.11001 24.14C2.77001 24.58 2.57001 25.12 2.57001 25.71C2.57001 27.13 3.72001 28.29 5.14001 28.29C5.81001 28.29 6.42001 28.03 6.88001 27.61C7.09001 27.42 7.26001 27.19 7.40001 26.93C7.60001 26.56 7.71001 26.15 7.71001 25.71C7.71001 24.29 6.56001 23.14 5.14001 23.14ZM6.14001 27.11C5.86001 27.31 5.52001 27.43 5.14001 27.43C4.19001 27.43 3.43001 26.66 3.43001 25.71C3.43001 25.39 3.52001 25.1 3.68001 24.84C3.82001 24.59 4.03001 24.37 4.29001 24.23C4.54001 24.08 4.83001 24 5.14001 24C6.09001 24 6.85001 24.77 6.85001 25.71C6.85001 25.97 6.79001 26.22 6.69001 26.44C6.56001 26.71 6.38001 26.94 6.14001 27.11Z" fill="#394508"/>
<path fill-rule="evenodd" clip-rule="evenodd" d="M6.06001 14.57C6.02001 14.71 6.00001 14.85 6.00001 15C6.00001 15.15 6.02001 15.29 6.06001 15.43H0.570007V14.57H6.06001Z" fill="#394508"/>
<path fill-rule="evenodd" clip-rule="evenodd" d="M29.71 14.57V15.43H9.37C9.41 15.29 9.43 15.15 9.43 15C9.43 14.85 9.41 14.71 9.37 14.57H29.71Z" fill="#394508"/>
<path fill-rule="evenodd" clip-rule="evenodd" d="M14.5701 29.57V0.429993H15.4301V29.57H14.5701Z" fill="#394508"/>
<path fill-rule="evenodd" clip-rule="evenodd" d="M10.24 14.57C10.07 13.53 9.28 12.71 8.26 12.49C8.08 12.45 7.9 12.43 7.71 12.43C7.6 12.43 7.5 12.44 7.4 12.45C6.27 12.59 5.36 13.46 5.18 14.57C5.15 14.71 5.14 14.85 5.14 15C5.14 15.15 5.15 15.29 5.18 15.43C5.36 16.54 6.27 17.41 7.4 17.55C7.5 17.56 7.6 17.57 7.71 17.57C7.9 17.57 8.08 17.55 8.26 17.51C9.28 17.29 10.07 16.47 10.24 15.43C10.27 15.29 10.28 15.15 10.28 15C10.28 14.85 10.27 14.71 10.24 14.57ZM8.19 16.64C8.04 16.69 7.88 16.71 7.71 16.71C7.58 16.71 7.45 16.69 7.33 16.67C6.71 16.52 6.21 16.05 6.06 15.43C6.02 15.29 6 15.15 6 15C6 14.85 6.02 14.71 6.06 14.57C6.21 13.95 6.71 13.48 7.33 13.33C7.45 13.31 7.58 13.29 7.71 13.29C7.88 13.29 8.04 13.31 8.19 13.36C8.77 13.52 9.22 13.99 9.37 14.57C9.41 14.71 9.43 14.85 9.43 15C9.43 15.15 9.41 15.29 9.37 15.43C9.22 16.01 8.77 16.48 8.19 16.64Z" fill="#394508"/>
</g>
<defs>
<clipPath id="clip0_6_60">
<rect width="30" height="30" fill="white"/>
</clipPath>
</defs>
</svg>
