<svg width="14" height="14" viewBox="0 0 14 14" fill="none" xmlns="http://www.w3.org/2000/svg">
<mask id="mask0_148_4345" style="mask-type:luminance" maskUnits="userSpaceOnUse" x="0" y="0" width="14" height="14">
<path d="M14 0H0V14H14V0Z" fill="white"/>
</mask>
<g mask="url(#mask0_148_4345)">
<path d="M7 10.02V11.03" stroke="#000001" stroke-linecap="round" stroke-linejoin="round"/>
<path d="M7 5.01001V5.95001" stroke="#000001" stroke-linecap="round" stroke-linejoin="round"/>
<path d="M7 13.489C10.5 13.489 13 12.249 13 9.48901C13 6.48901 11.5 4.48901 8.5 2.98901L9.68 1.46899C9.7399 1.36999 9.7725 1.25601 9.7743 1.14001C9.776 1.02301 9.747 0.909007 9.6902 0.807007C9.6333 0.705007 9.5506 0.621012 9.4505 0.562012C9.3504 0.502012 9.2364 0.469994 9.12 0.468994H4.88C4.7636 0.469994 4.6496 0.502012 4.5495 0.562012C4.4494 0.621012 4.3667 0.705007 4.3098 0.807007C4.253 0.909007 4.224 1.02301 4.2257 1.14001C4.2275 1.25601 4.2601 1.36999 4.32 1.46899L5.5 2.99902C2.5 4.50902 1 6.50897 1 9.50897C1 12.249 3.5 13.489 7 13.489Z" stroke="#000001" stroke-linecap="round" stroke-linejoin="round"/>
<path d="M6 9.55905C6.122 9.70405 6.27559 9.81905 6.44889 9.89505C6.62229 9.97205 6.8108 10.0071 7 9.99905C7.2892 10.0191 7.5748 9.92604 7.7967 9.73904C8.0186 9.55304 8.1596 9.28805 8.19 8.99905C8.1596 8.71105 8.0186 8.446 7.7967 8.259C7.5748 8.073 7.2892 7.98005 7 7.99905C6.7108 8.01905 6.4252 7.92604 6.2033 7.73904C5.9814 7.55304 5.8404 7.28805 5.81 6.99905C5.8379 6.71005 5.9782 6.44301 6.2007 6.25601C6.4232 6.06901 6.7102 5.97705 7 5.99905C7.1859 5.98805 7.372 6.018 7.5449 6.087C7.7178 6.156 7.8732 6.26302 8 6.39902" stroke="#000001" stroke-linecap="round" stroke-linejoin="round"/>
</g>
</svg>
