<svg width="14" height="14" viewBox="0 0 14 14" fill="none" xmlns="http://www.w3.org/2000/svg">
<mask id="mask0_148_6343" style="mask-type:luminance" maskUnits="userSpaceOnUse" x="0" y="0" width="14" height="14">
<path d="M14 0H0V14H14V0Z" fill="white"/>
</mask>
<g mask="url(#mask0_148_6343)">
<path d="M5.21002 7.00004C5.21002 5.54604 5.786 4.15204 6.811 3.12104C7.836 2.09004 9.22702 1.50704 10.68 1.50004C9.69702 0.880036 8.56502 0.53602 7.40402 0.50202C6.24202 0.46902 5.09301 0.747027 4.07501 1.30903C3.05801 1.87103 2.20902 2.69502 1.61902 3.69602C1.02802 4.69602 0.716003 5.83704 0.716003 7.00004C0.716003 8.16204 1.02802 9.30302 1.61902 10.304C2.20902 11.304 3.05801 12.129 4.07501 12.69C5.09301 13.252 6.24202 13.53 7.40402 13.497C8.56502 13.463 9.69702 13.119 10.68 12.5C9.22702 12.492 7.836 11.909 6.811 10.878C5.786 9.84703 5.21002 8.45304 5.21002 7.00004Z" stroke="#000001" stroke-linecap="round" stroke-linejoin="round"/>
<path d="M10.57 4.04004L11.48 5.85004H13.29L11.9301 7.25003L12.36 9.25003L10.57 8.25003L8.86005 9.25003L9.22003 7.25003L7.86005 5.85004H9.67004L10.57 4.04004Z" stroke="#000001" stroke-linecap="round" stroke-linejoin="round"/>
</g>
</svg>
