<svg width="14" height="14" viewBox="0 0 14 14" fill="none" xmlns="http://www.w3.org/2000/svg">
<mask id="mask0_148_6208" style="mask-type:luminance" maskUnits="userSpaceOnUse" x="0" y="0" width="14" height="14">
<path d="M14 0H0V14H14V0Z" fill="white"/>
</mask>
<g mask="url(#mask0_148_6208)">
<path d="M8.75999 12.9989C9.37599 13.3969 10.11 13.5699 10.838 13.4899C11.567 13.4099 12.246 13.0809 12.76 12.5589L13.21 12.1189C13.408 11.9179 13.518 11.647 13.518 11.364C13.518 11.082 13.408 10.8109 13.21 10.6089L11.3 8.71895C11.1 8.52295 10.831 8.41295 10.55 8.41295C10.27 8.41295 9.99997 8.52295 9.79997 8.71895C9.59797 8.91695 9.32703 9.02695 9.04503 9.02695C8.76303 9.02695 8.49202 8.91695 8.29002 8.71895L5.29002 5.71895C5.19002 5.62095 5.11102 5.50295 5.05602 5.37395C5.00202 5.24395 4.97398 5.10494 4.97398 4.96394C4.97398 4.82394 5.00202 4.68495 5.05602 4.55495C5.11102 4.42595 5.19002 4.30795 5.29002 4.20895C5.48702 4.00895 5.59697 3.73995 5.59697 3.45895C5.59697 3.17895 5.48702 2.90995 5.29002 2.70895L3.39 0.808945C3.188 0.611945 2.91699 0.501953 2.63499 0.501953C2.35299 0.501953 2.08199 0.611945 1.87999 0.808945L1.43999 1.25894C0.918988 1.77394 0.589995 2.45295 0.509995 3.18095C0.429995 3.90995 0.602985 4.64394 0.999985 5.25894C3.06999 8.30994 5.70399 10.9369 8.75999 12.9989Z" stroke="#000001" stroke-linecap="round" stroke-linejoin="round"/>
</g>
</svg>
