<svg width="14" height="14" viewBox="0 0 14 14" fill="none" xmlns="http://www.w3.org/2000/svg">
<mask id="mask0_148_3993" style="mask-type:luminance" maskUnits="userSpaceOnUse" x="0" y="0" width="14" height="14">
<path d="M14 0H0V14H14V0Z" fill="white"/>
</mask>
<g mask="url(#mask0_148_3993)">
<path d="M13.19 3.04999C13.386 2.85099 13.496 2.58399 13.496 2.30499C13.496 2.02599 13.386 1.758 13.19 1.56L12.44 0.809998C12.244 0.627998 11.987 0.528015 11.72 0.528015C11.453 0.528015 11.196 0.627998 11 0.809998L7 4.76001L3.05005 0.809998C2.85205 0.613998 2.58399 0.503967 2.30499 0.503967C2.02599 0.503967 1.758 0.613998 1.56 0.809998L0.809998 1.56C0.613998 1.758 0.504028 2.02599 0.504028 2.30499C0.504028 2.58399 0.613998 2.85099 0.809998 3.04999L4.81 7.04999L0.809998 11C0.613998 11.198 0.504028 11.466 0.504028 11.745C0.504028 12.024 0.613998 12.291 0.809998 12.49L1.56 13.24C1.758 13.436 2.02599 13.546 2.30499 13.546C2.58399 13.546 2.85205 13.436 3.05005 13.24L7 9.23999L11 13.19C11.198 13.386 11.466 13.496 11.745 13.496C12.024 13.496 12.292 13.386 12.49 13.19L13.24 12.44C13.436 12.241 13.546 11.974 13.546 11.695C13.546 11.416 13.436 11.148 13.24 10.95L9.23999 7L13.19 3.04999Z" stroke="#000001" stroke-linecap="round" stroke-linejoin="round"/>
</g>
</svg>
