<svg width="14" height="14" viewBox="0 0 14 14" fill="none" xmlns="http://www.w3.org/2000/svg">
<mask id="mask0_148_4331" style="mask-type:luminance" maskUnits="userSpaceOnUse" x="0" y="0" width="14" height="14">
<path d="M14 0H0V14H14V0Z" fill="white"/>
</mask>
<g mask="url(#mask0_148_4331)">
<path d="M12 7.5V5.5C12 5.234 11.8946 4.97999 11.7071 4.79199C11.5196 4.60499 11.2652 4.5 11 4.5H1.5C1.23478 4.5 0.98043 4.60499 0.79289 4.79199C0.60536 4.97999 0.5 5.234 0.5 5.5V12.5C0.5 12.765 0.60536 13.019 0.79289 13.207C0.98043 13.394 1.23478 13.5 1.5 13.5H11C11.2652 13.5 11.5196 13.394 11.7071 13.207C11.8946 13.019 12 12.765 12 12.5V10" stroke="#000001" stroke-linecap="round" stroke-linejoin="round"/>
<path d="M3.84 2.00003L9.51 0.520046C9.5737 0.502046 9.6404 0.497032 9.706 0.505032C9.7717 0.514032 9.8349 0.535997 9.8919 0.568997C9.9489 0.602997 9.9985 0.648016 10.0377 0.701016C10.0769 0.754016 10.1049 0.815032 10.12 0.880032L10.4 2.00003" stroke="#000001" stroke-linecap="round" stroke-linejoin="round"/>
<path d="M13 7.5H10.5C10.2239 7.5 10 7.723 10 8V9.5C10 9.776 10.2239 10 10.5 10H13C13.2761 10 13.5 9.776 13.5 9.5V8C13.5 7.723 13.2761 7.5 13 7.5Z" stroke="#000001" stroke-linecap="round" stroke-linejoin="round"/>
</g>
</svg>
